<svg width="907" height="356" viewBox="0 0 907 356" fill="none" xmlns="http://www.w3.org/2000/svg">
<path d="M298.84 203.352C294.936 203.352 291.992 202.712 290.008 201.432C288.024 200.152 287 198.04 286.936 195.096C286.936 194.456 287.288 194.136 287.992 194.136C288.568 194.136 289.432 194.296 290.584 194.616C291.8 194.872 294.072 195 297.4 195C303.032 195 308.216 194.424 312.952 193.272C317.688 192.056 321.784 190.456 325.24 188.472C328.76 186.424 331.48 184.152 333.4 181.656C335.32 179.096 336.28 176.44 336.28 173.688C336.28 171.192 335.512 169.208 333.976 167.736C332.504 166.2 330.52 165.048 328.024 164.28C325.592 163.448 322.904 162.904 319.96 162.648C317.08 162.392 314.232 162.264 311.416 162.264C310.2 162.264 308.984 162.296 307.768 162.36C306.552 162.36 305.4 162.36 304.312 162.36C302.904 167.224 301.528 172.248 300.184 177.432C298.84 182.616 297.432 187.704 295.96 192.696C294.04 192.696 292.376 192.184 290.968 191.16C289.56 190.136 288.856 188.888 288.856 187.416C288.856 186.84 288.952 186.104 289.144 185.208C289.4 184.248 289.752 183.128 290.2 181.848C290.584 180.632 291.224 178.616 292.12 175.8C293.08 172.984 294.2 169.656 295.48 165.816C296.76 161.976 298.168 157.944 299.704 153.72C301.304 149.432 302.936 145.24 304.6 141.144C306.328 137.048 308.024 133.368 309.688 130.104C307.128 130.68 305.016 131.352 303.352 132.12C301.688 132.888 300.376 133.56 299.416 134.136C298.456 134.712 297.72 135 297.208 135C296.824 135 296.312 134.776 295.672 134.328C295.096 133.88 294.552 133.368 294.04 132.792C293.592 132.216 293.368 131.704 293.368 131.256C296.824 129.848 300.408 128.6 304.12 127.512C307.832 126.424 312.312 125.88 317.56 125.88C319.864 125.88 322.392 126.072 325.144 126.456C327.896 126.776 330.52 127.48 333.016 128.568C335.512 129.592 337.56 131.16 339.16 133.272C340.824 135.32 341.656 138.072 341.656 141.528C341.656 144.28 341.048 146.68 339.832 148.728C338.68 150.712 337.112 152.44 335.128 153.912C333.144 155.32 330.968 156.504 328.6 157.464C326.232 158.36 323.896 159.096 321.592 159.672C325.56 160.184 328.856 161.016 331.48 162.168C334.168 163.256 336.28 164.536 337.816 166.008C339.416 167.48 340.536 169.016 341.176 170.616C341.88 172.152 342.232 173.656 342.232 175.128C342.232 178.904 341.24 182.296 339.256 185.304C337.272 188.312 334.648 190.936 331.384 193.176C328.184 195.416 324.632 197.272 320.728 198.744C316.888 200.28 313.048 201.432 309.208 202.2C305.368 202.968 301.912 203.352 298.84 203.352ZM305.272 158.712C308.856 158.584 312.376 158.168 315.832 157.464C319.288 156.76 322.392 155.736 325.144 154.392C327.96 152.984 330.2 151.192 331.864 149.016C333.528 146.776 334.36 144.024 334.36 140.76C334.36 137.688 333.528 135.32 331.864 133.656C330.2 131.992 328.024 130.84 325.336 130.2C322.648 129.56 319.768 129.24 316.696 129.24C316.632 129.24 316.568 129.24 316.504 129.24C316.44 129.24 316.376 129.24 316.312 129.24C314.136 133.528 312.152 138.2 310.36 143.256C308.568 148.248 306.872 153.4 305.272 158.712Z" fill="#484848"/>
<path d="M356.574 199.224C352.478 199.224 349.31 198.104 347.07 195.864C344.894 193.688 343.806 190.936 343.806 187.608C343.806 184.792 344.51 181.816 345.918 178.68C347.39 175.48 349.342 172.504 351.774 169.752C354.206 166.936 356.894 164.664 359.838 162.936C362.782 161.208 365.726 160.344 368.67 160.344C370.334 160.344 371.902 160.792 373.374 161.688C374.91 162.52 375.678 164.216 375.678 166.776C375.678 169.208 374.974 171.48 373.566 173.592C372.158 175.704 370.27 177.592 367.902 179.256C365.534 180.92 362.91 182.296 360.03 183.384C357.214 184.408 354.366 185.08 351.486 185.4C351.422 185.656 351.358 185.944 351.294 186.264C351.294 186.52 351.294 186.968 351.294 187.608C351.294 187.928 351.326 188.504 351.39 189.336C351.518 190.104 351.806 190.936 352.254 191.832C352.702 192.728 353.438 193.496 354.462 194.136C355.486 194.776 356.894 195.096 358.686 195.096C361.374 195.096 364.062 194.36 366.75 192.888C369.502 191.352 372.062 189.336 374.43 186.84C376.862 184.344 378.878 181.56 380.478 178.488L382.398 180.024C380.67 183.864 378.43 187.224 375.678 190.104C372.99 192.984 369.982 195.224 366.654 196.824C363.39 198.424 360.03 199.224 356.574 199.224ZM352.542 181.848C354.206 181.656 356.062 181.08 358.11 180.12C360.158 179.16 362.11 177.944 363.966 176.472C365.886 175 367.454 173.4 368.67 171.672C369.886 169.88 370.494 168.088 370.494 166.296C370.494 165.592 370.366 165.112 370.11 164.856C369.854 164.6 369.438 164.472 368.862 164.472C367.39 164.472 365.854 165.016 364.254 166.104C362.654 167.128 361.086 168.504 359.55 170.232C358.014 171.896 356.638 173.752 355.422 175.8C354.206 177.848 353.246 179.864 352.542 181.848Z" fill="#484848"/>
<path d="M455.126 203.352C453.59 203.352 451.83 202.552 449.846 200.952C447.926 199.416 445.846 197.368 443.606 194.808C441.43 192.248 439.286 189.432 437.174 186.36C435.062 183.288 433.046 180.216 431.126 177.144C429.27 174.008 427.67 171.16 426.326 168.6L417.59 196.824C417.142 198.36 416.31 199.448 415.094 200.088C413.942 200.792 412.662 201.208 411.254 201.336C409.846 201.528 408.502 201.624 407.222 201.624C408.118 199.64 409.014 197.496 409.91 195.192C410.806 192.952 411.798 190.232 412.886 187.032C413.974 183.832 415.286 179.96 416.822 175.416C418.422 170.872 420.342 165.368 422.582 158.904C424.822 152.44 427.542 144.76 430.742 135.864C430.87 135.416 431.094 134.808 431.414 134.04C431.734 133.208 431.894 132.44 431.894 131.736C431.894 131.16 431.734 130.712 431.414 130.392C431.158 130.072 430.678 129.912 429.974 129.912C428.438 129.912 426.998 130.52 425.654 131.736C424.31 132.888 423.094 134.36 422.006 136.152C420.918 137.88 420.054 139.672 419.414 141.528C418.838 143.384 418.55 145.016 418.55 146.424C418.55 147.896 418.87 149.368 419.51 150.84C416.758 150.84 414.774 150.264 413.558 149.112C412.406 147.896 411.83 146.392 411.83 144.6C411.83 142.424 412.502 140.248 413.846 138.072C415.19 135.832 416.886 133.816 418.934 132.024C421.046 130.168 423.254 128.696 425.558 127.608C427.926 126.456 430.102 125.88 432.086 125.88C434.262 125.88 435.67 126.488 436.31 127.704C437.014 128.856 437.366 130.104 437.366 131.448C437.366 132.152 437.302 132.824 437.174 133.464C437.046 134.104 436.886 134.712 436.694 135.288L429.59 158.328C430.294 157.88 431.094 157.304 431.99 156.6C432.95 155.896 434.358 154.84 436.214 153.432C439.798 150.616 443.254 147.672 446.582 144.6C449.91 141.528 452.982 138.392 455.798 135.192C458.614 131.928 461.046 128.728 463.094 125.592C463.862 126.296 464.374 127.192 464.63 128.28C464.886 129.304 465.014 130.136 465.014 130.776C465.014 132.76 464.182 134.936 462.518 137.304C460.918 139.608 458.774 142.008 456.086 144.504C453.462 147 450.582 149.464 447.446 151.896C444.31 154.328 441.174 156.6 438.038 158.712C434.902 160.824 432.086 162.68 429.59 164.28C431.638 167.416 433.59 170.392 435.446 173.208C437.366 176.024 439.478 178.808 441.782 181.56C444.086 184.248 446.774 187.064 449.846 190.008C452.982 192.888 456.726 195.992 461.078 199.32C460.502 200.408 459.638 201.336 458.486 202.104C457.334 202.936 456.214 203.352 455.126 203.352Z" fill="#484848"/>
<path d="M471.055 197.88C468.239 197.88 466.127 197.048 464.719 195.384C463.311 193.72 462.607 191.704 462.607 189.336C462.607 187.864 462.863 186.008 463.375 183.768C463.887 181.528 464.591 179.192 465.487 176.76C466.447 174.264 467.535 171.928 468.751 169.752C469.967 167.576 471.279 165.816 472.687 164.472C474.095 163.064 475.503 162.36 476.911 162.36C477.679 162.36 478.351 162.616 478.927 163.128C479.503 163.576 479.791 164.248 479.791 165.144C479.791 165.976 479.279 167.224 478.255 168.888C477.295 170.552 476.143 172.472 474.799 174.648C473.519 176.824 472.367 179.096 471.343 181.464C470.383 183.768 469.903 185.976 469.903 188.088C469.903 190.136 470.255 191.512 470.959 192.216C471.727 192.856 472.815 193.176 474.223 193.176C476.399 193.176 478.767 192.088 481.327 189.912C483.887 187.736 486.543 183.928 489.295 178.488L490.735 180.024C488.495 185.656 485.647 190.04 482.191 193.176C478.735 196.312 475.023 197.88 471.055 197.88ZM482.383 154.584C481.167 154.584 480.047 154.296 479.023 153.72C478.063 153.08 477.583 152.12 477.583 150.84C477.583 149.304 478.415 147.992 480.079 146.904C481.743 145.816 483.471 145.272 485.263 145.272C486.415 145.272 487.375 145.528 488.143 146.04C488.975 146.552 489.391 147.48 489.391 148.824C489.391 150.168 488.655 151.48 487.183 152.76C485.711 153.976 484.111 154.584 482.383 154.584Z" fill="#484848"/>
<path d="M519.165 196.92C516.669 196.92 514.748 196.28 513.404 195C512.124 193.784 511.484 192.216 511.484 190.296C511.484 189.016 511.708 187.672 512.156 186.264C512.604 184.792 513.053 183.32 513.501 181.848C513.949 180.376 514.173 178.968 514.173 177.624C514.173 176.216 513.821 175.256 513.117 174.744C512.476 174.168 511.708 173.88 510.812 173.88C508.893 173.88 506.909 174.68 504.861 176.28C502.877 177.816 500.925 179.768 499.005 182.136C497.149 184.504 495.389 186.968 493.725 189.528C492.061 192.088 490.62 194.392 489.404 196.44C488.188 196.44 487.037 196.216 485.949 195.768C484.861 195.384 483.933 194.68 483.165 193.656C483.229 193.336 483.612 192.376 484.316 190.776C484.956 189.112 485.693 187.16 486.525 184.92C487.357 182.616 488.092 180.216 488.732 177.72C489.372 175.224 489.693 172.952 489.693 170.904C490.141 170.392 490.812 169.88 491.708 169.368C492.668 168.856 493.66 168.6 494.684 168.6C496.924 168.6 498.044 169.56 498.044 171.48C498.044 172.248 497.884 173.4 497.564 174.936C497.308 176.408 496.925 178.104 496.413 180.024C498.077 177.784 499.901 175.672 501.885 173.688C503.869 171.704 505.917 170.104 508.029 168.888C510.205 167.608 512.381 166.968 514.557 166.968C517.309 166.968 519.325 167.896 520.605 169.752C521.949 171.608 522.62 173.656 522.62 175.896C522.62 177.816 522.301 179.608 521.661 181.272C521.021 182.936 520.381 184.504 519.741 185.976C519.165 187.448 518.876 188.888 518.876 190.296C518.876 191.32 519.101 192.056 519.549 192.504C520.061 192.888 520.604 193.08 521.18 193.08C522.716 193.08 524.316 192.344 525.98 190.872C527.644 189.4 529.213 187.544 530.685 185.304C532.221 183 533.565 180.696 534.717 178.392L536.349 179.736C535.005 182.872 533.469 185.752 531.741 188.376C530.077 190.936 528.189 193.016 526.077 194.616C524.029 196.152 521.725 196.92 519.165 196.92Z" fill="#484848"/>
<path d="M538.811 197.88C537.595 197.88 536.348 197.56 535.068 196.92C533.852 196.344 532.827 195.416 531.995 194.136C531.099 192.856 530.652 191.224 530.652 189.24C530.652 187.128 531.163 184.76 532.188 182.136C533.212 179.512 534.588 176.888 536.316 174.264C538.108 171.64 540.156 169.24 542.46 167.064C544.828 164.888 547.324 163.128 549.948 161.784C552.572 160.44 555.227 159.768 557.915 159.768C559.387 159.768 560.539 160.024 561.371 160.536C562.203 160.984 562.62 161.752 562.62 162.84C562.62 163.16 562.555 163.544 562.427 163.992C562.299 164.376 561.979 164.728 561.467 165.048C561.212 164.664 560.764 164.408 560.124 164.28C559.484 164.088 558.812 163.992 558.108 163.992C555.996 163.992 553.98 164.6 552.06 165.816C550.14 166.968 548.38 168.472 546.78 170.328C545.18 172.184 543.772 174.2 542.556 176.376C541.404 178.552 540.507 180.664 539.867 182.712C539.227 184.696 538.908 186.424 538.908 187.896C538.908 189.112 539.164 190.104 539.676 190.872C540.188 191.576 540.955 191.928 541.979 191.928C543.707 191.928 545.756 190.936 548.124 188.952C550.556 186.904 553.02 183.992 555.516 180.216C558.076 176.376 560.379 171.8 562.427 166.488C563.835 162.84 565.308 159.128 566.844 155.352C568.38 151.512 569.916 147.832 571.452 144.312C572.988 140.792 574.492 137.656 575.964 134.904C577.5 132.152 578.94 129.976 580.284 128.376C581.692 126.712 582.972 125.88 584.124 125.88C584.828 125.88 585.436 126.168 585.948 126.744C586.524 127.256 586.811 127.928 586.811 128.76C586.811 129.848 586.268 131.608 585.18 134.04C584.156 136.408 582.811 139.256 581.147 142.584C579.547 145.912 577.787 149.528 575.867 153.432C574.011 157.272 572.251 161.24 570.587 165.336C568.987 169.368 567.644 173.368 566.556 177.336C565.532 181.24 565.02 184.92 565.02 188.376C565.02 189.912 565.148 190.968 565.404 191.544C565.724 192.056 566.236 192.312 566.94 192.312C568.348 192.312 569.915 191.768 571.643 190.68C573.371 189.592 575.131 187.992 576.923 185.88C578.715 183.704 580.347 181.112 581.819 178.104L583.643 179.64C582.235 183.16 580.444 186.264 578.268 188.952C576.092 191.64 573.755 193.72 571.259 195.192C568.763 196.728 566.299 197.496 563.867 197.496C561.243 197.496 559.42 196.664 558.396 195C557.372 193.336 556.859 191.384 556.859 189.144C556.859 188.12 556.924 187.096 557.052 186.072C557.244 184.984 557.436 183.928 557.628 182.904C555.644 185.784 553.532 188.376 551.292 190.68C549.116 192.92 546.971 194.68 544.859 195.96C542.747 197.24 540.731 197.88 538.811 197.88Z" fill="#484848"/>
<path d="M620.121 203.352C616.217 203.352 613.273 202.712 611.289 201.432C609.305 200.152 608.281 198.04 608.217 195.096C608.217 194.456 608.569 194.136 609.273 194.136C609.849 194.136 610.713 194.296 611.865 194.616C613.081 194.872 615.353 195 618.681 195C624.313 195 629.497 194.424 634.233 193.272C638.969 192.056 643.065 190.456 646.521 188.472C650.041 186.424 652.761 184.152 654.681 181.656C656.601 179.096 657.561 176.44 657.561 173.688C657.561 171.192 656.793 169.208 655.257 167.736C653.785 166.2 651.801 165.048 649.305 164.28C646.873 163.448 644.185 162.904 641.241 162.648C638.361 162.392 635.513 162.264 632.697 162.264C631.481 162.264 630.265 162.296 629.049 162.36C627.833 162.36 626.681 162.36 625.593 162.36C624.185 167.224 622.809 172.248 621.465 177.432C620.121 182.616 618.713 187.704 617.241 192.696C615.321 192.696 613.657 192.184 612.249 191.16C610.841 190.136 610.137 188.888 610.137 187.416C610.137 186.84 610.233 186.104 610.425 185.208C610.681 184.248 611.033 183.128 611.481 181.848C611.865 180.632 612.505 178.616 613.401 175.8C614.361 172.984 615.481 169.656 616.761 165.816C618.041 161.976 619.449 157.944 620.985 153.72C622.585 149.432 624.217 145.24 625.881 141.144C627.609 137.048 629.305 133.368 630.969 130.104C628.409 130.68 626.297 131.352 624.633 132.12C622.969 132.888 621.657 133.56 620.697 134.136C619.737 134.712 619.001 135 618.489 135C618.105 135 617.593 134.776 616.953 134.328C616.377 133.88 615.833 133.368 615.321 132.792C614.873 132.216 614.649 131.704 614.649 131.256C618.105 129.848 621.689 128.6 625.401 127.512C629.113 126.424 633.593 125.88 638.841 125.88C641.145 125.88 643.673 126.072 646.425 126.456C649.177 126.776 651.801 127.48 654.297 128.568C656.793 129.592 658.841 131.16 660.441 133.272C662.105 135.32 662.937 138.072 662.937 141.528C662.937 144.28 662.329 146.68 661.113 148.728C659.961 150.712 658.393 152.44 656.409 153.912C654.425 155.32 652.249 156.504 649.881 157.464C647.513 158.36 645.177 159.096 642.873 159.672C646.841 160.184 650.137 161.016 652.761 162.168C655.449 163.256 657.561 164.536 659.097 166.008C660.697 167.48 661.817 169.016 662.457 170.616C663.161 172.152 663.513 173.656 663.513 175.128C663.513 178.904 662.521 182.296 660.537 185.304C658.553 188.312 655.929 190.936 652.665 193.176C649.465 195.416 645.913 197.272 642.009 198.744C638.169 200.28 634.329 201.432 630.489 202.2C626.649 202.968 623.193 203.352 620.121 203.352ZM626.553 158.712C630.137 158.584 633.657 158.168 637.113 157.464C640.569 156.76 643.673 155.736 646.425 154.392C649.241 152.984 651.481 151.192 653.145 149.016C654.809 146.776 655.641 144.024 655.641 140.76C655.641 137.688 654.809 135.32 653.145 133.656C651.481 131.992 649.305 130.84 646.617 130.2C643.929 129.56 641.049 129.24 637.977 129.24C637.913 129.24 637.849 129.24 637.785 129.24C637.721 129.24 637.657 129.24 637.593 129.24C635.417 133.528 633.433 138.2 631.641 143.256C629.849 148.248 628.153 153.4 626.553 158.712Z" fill="#484848"/>
<path d="M677.855 199.224C673.759 199.224 670.591 198.104 668.351 195.864C666.175 193.688 665.087 190.936 665.087 187.608C665.087 184.792 665.791 181.816 667.199 178.68C668.671 175.48 670.623 172.504 673.055 169.752C675.487 166.936 678.175 164.664 681.119 162.936C684.063 161.208 687.007 160.344 689.951 160.344C691.615 160.344 693.183 160.792 694.655 161.688C696.191 162.52 696.959 164.216 696.959 166.776C696.959 169.208 696.255 171.48 694.847 173.592C693.439 175.704 691.551 177.592 689.183 179.256C686.815 180.92 684.191 182.296 681.311 183.384C678.495 184.408 675.647 185.08 672.767 185.4C672.703 185.656 672.639 185.944 672.575 186.264C672.575 186.52 672.575 186.968 672.575 187.608C672.575 187.928 672.607 188.504 672.671 189.336C672.799 190.104 673.087 190.936 673.535 191.832C673.983 192.728 674.719 193.496 675.743 194.136C676.767 194.776 678.175 195.096 679.967 195.096C682.655 195.096 685.343 194.36 688.031 192.888C690.783 191.352 693.343 189.336 695.711 186.84C698.143 184.344 700.159 181.56 701.759 178.488L703.679 180.024C701.951 183.864 699.711 187.224 696.959 190.104C694.271 192.984 691.263 195.224 687.935 196.824C684.671 198.424 681.311 199.224 677.855 199.224ZM673.823 181.848C675.487 181.656 677.343 181.08 679.391 180.12C681.439 179.16 683.391 177.944 685.247 176.472C687.167 175 688.735 173.4 689.951 171.672C691.167 169.88 691.775 168.088 691.775 166.296C691.775 165.592 691.647 165.112 691.391 164.856C691.135 164.6 690.719 164.472 690.143 164.472C688.671 164.472 687.135 165.016 685.535 166.104C683.935 167.128 682.367 168.504 680.831 170.232C679.295 171.896 677.919 173.752 676.703 175.8C675.487 177.848 674.527 179.864 673.823 181.848Z" fill="#484848"/>
<path d="M747.223 203.352C743.639 203.352 740.343 202.392 737.335 200.472C734.327 198.616 731.927 195.896 730.135 192.312C728.343 188.664 727.447 184.312 727.447 179.256C727.447 174.328 728.215 169.336 729.751 164.28C731.287 159.224 733.399 154.424 736.087 149.88C738.775 145.272 741.847 141.176 745.303 137.592C748.759 134.008 752.407 131.192 756.247 129.144C760.151 127.032 764.055 125.976 767.959 125.976C770.775 125.976 773.015 126.52 774.679 127.608C776.343 128.632 777.527 130.008 778.231 131.736C778.999 133.464 779.383 135.32 779.383 137.304C779.383 139.544 778.967 141.784 778.135 144.024C777.367 146.264 776.279 148.12 774.871 149.592C773.527 151.064 772.023 151.8 770.359 151.8C769.591 151.8 768.887 151.576 768.247 151.128C767.607 150.68 766.967 149.848 766.327 148.632C767.287 147.992 768.343 146.872 769.495 145.272C770.711 143.672 771.767 141.912 772.663 139.992C773.559 138.008 774.007 136.248 774.007 134.712C774.007 133.432 773.591 132.376 772.759 131.544C771.991 130.648 770.679 130.2 768.823 130.2C765.943 130.2 762.967 131.288 759.895 133.464C756.887 135.576 754.007 138.424 751.255 142.008C748.503 145.528 746.007 149.496 743.767 153.912C741.591 158.264 739.863 162.744 738.583 167.352C737.303 171.896 736.663 176.216 736.663 180.312C736.663 186.136 737.911 190.68 740.407 193.944C742.967 197.144 746.007 198.744 749.527 198.744C752.151 198.744 754.551 197.912 756.727 196.248C758.967 194.584 760.919 192.408 762.583 189.72C764.311 186.968 765.687 183.992 766.711 180.792C767.735 177.592 768.375 174.456 768.631 171.384C767.031 171.064 765.367 170.84 763.639 170.712C761.975 170.52 760.215 170.424 758.359 170.424C757.335 170.424 756.311 170.456 755.287 170.52C754.263 170.52 753.175 170.552 752.023 170.616C752.599 168.376 753.495 166.744 754.711 165.72C755.991 164.632 757.655 164.088 759.703 164.088C761.623 164.088 763.543 164.408 765.463 165.048C767.447 165.624 769.431 166.264 771.415 166.968C773.463 167.672 775.447 168.248 777.367 168.696L776.407 171.672C775.255 175.192 774.295 178.136 773.527 180.504C772.823 182.808 772.279 184.792 771.895 186.456C771.511 188.056 771.255 189.528 771.127 190.872C770.999 192.152 770.935 193.496 770.935 194.904C770.935 196.184 770.967 197.496 771.031 198.84C771.095 200.248 771.159 201.944 771.223 203.928C769.303 203.672 767.863 203.096 766.903 202.2C766.007 201.368 765.399 200.376 765.079 199.224C764.823 198.072 764.695 196.952 764.695 195.864C764.695 195.544 764.695 195.224 764.695 194.904C764.695 194.584 764.727 194.264 764.791 193.944C762.551 196.696 759.959 198.936 757.015 200.664C754.135 202.456 750.871 203.352 747.223 203.352Z" fill="#484848"/>
<path d="M786.867 198.072C783.987 198.072 782.003 197.112 780.915 195.192C779.891 193.336 779.379 191.288 779.379 189.048C779.379 187 779.699 184.92 780.339 182.808C780.979 180.632 781.843 178.616 782.931 176.76C784.083 174.904 785.331 173.432 786.675 172.344C788.083 171.192 789.491 170.616 790.899 170.616C791.347 170.616 791.859 170.712 792.435 170.904C793.075 171.032 793.523 171.256 793.779 171.576C793.011 172.536 792.211 173.72 791.379 175.128C790.611 176.536 789.875 178.04 789.171 179.64C788.531 181.176 788.019 182.744 787.635 184.344C787.251 185.944 787.059 187.416 787.059 188.76C787.059 190.04 787.283 191.096 787.731 191.928C788.243 192.76 789.107 193.176 790.323 193.176C791.539 193.176 792.979 192.504 794.643 191.16C796.371 189.752 798.003 188.152 799.539 186.36C797.491 184.504 796.019 182.488 795.123 180.312C794.227 178.072 793.779 175.384 793.779 172.248C793.779 170.904 794.099 169.368 794.739 167.64C795.443 165.912 796.531 164.408 798.003 163.128C799.539 161.848 801.587 161.208 804.147 161.208C806.899 161.208 808.819 161.976 809.907 163.512C811.059 165.048 811.635 166.872 811.635 168.984C811.635 171.352 810.995 174.008 809.715 176.952C808.499 179.896 807.027 182.68 805.299 185.304C806.067 185.688 806.963 185.88 807.987 185.88C808.947 185.88 810.099 185.656 811.443 185.208C812.787 184.76 814.099 184.024 815.379 183C816.659 181.912 817.683 180.472 818.451 178.68L820.179 179.928C818.771 183.192 816.883 185.592 814.515 187.128C812.211 188.6 809.939 189.336 807.699 189.336C806.867 189.336 806.035 189.272 805.203 189.144C804.371 188.952 803.603 188.728 802.899 188.472C800.723 191.032 798.227 193.272 795.411 195.192C792.595 197.112 789.747 198.072 786.867 198.072ZM802.035 183.288C803.571 181.048 804.883 178.648 805.971 176.088C807.059 173.528 807.603 171.16 807.603 168.984C807.603 167.512 807.379 166.456 806.931 165.816C806.483 165.112 805.811 164.76 804.915 164.76C803.699 164.76 802.451 165.624 801.171 167.352C799.891 169.08 799.251 171.256 799.251 173.88C799.251 175.224 799.475 176.856 799.923 178.776C800.435 180.696 801.139 182.2 802.035 183.288Z" fill="#484848"/>
<path d="M822.586 198.072C819.706 198.072 817.722 197.112 816.634 195.192C815.61 193.336 815.098 191.288 815.098 189.048C815.098 187 815.418 184.92 816.058 182.808C816.698 180.632 817.562 178.616 818.65 176.76C819.802 174.904 821.05 173.432 822.394 172.344C823.802 171.192 825.21 170.616 826.618 170.616C827.066 170.616 827.578 170.712 828.154 170.904C828.794 171.032 829.242 171.256 829.498 171.576C828.73 172.536 827.93 173.72 827.098 175.128C826.33 176.536 825.594 178.04 824.89 179.64C824.25 181.176 823.738 182.744 823.354 184.344C822.97 185.944 822.778 187.416 822.778 188.76C822.778 190.04 823.002 191.096 823.45 191.928C823.962 192.76 824.826 193.176 826.042 193.176C827.258 193.176 828.698 192.504 830.362 191.16C832.09 189.752 833.722 188.152 835.258 186.36C833.21 184.504 831.738 182.488 830.842 180.312C829.946 178.072 829.498 175.384 829.498 172.248C829.498 170.904 829.818 169.368 830.458 167.64C831.162 165.912 832.25 164.408 833.722 163.128C835.258 161.848 837.306 161.208 839.866 161.208C842.618 161.208 844.538 161.976 845.626 163.512C846.778 165.048 847.354 166.872 847.354 168.984C847.354 171.352 846.714 174.008 845.434 176.952C844.218 179.896 842.746 182.68 841.018 185.304C841.786 185.688 842.682 185.88 843.706 185.88C844.666 185.88 845.818 185.656 847.162 185.208C848.506 184.76 849.818 184.024 851.098 183C852.378 181.912 853.402 180.472 854.17 178.68L855.898 179.928C854.49 183.192 852.602 185.592 850.234 187.128C847.93 188.6 845.658 189.336 843.418 189.336C842.586 189.336 841.754 189.272 840.922 189.144C840.09 188.952 839.322 188.728 838.618 188.472C836.442 191.032 833.946 193.272 831.13 195.192C828.314 197.112 825.466 198.072 822.586 198.072ZM837.754 183.288C839.29 181.048 840.602 178.648 841.69 176.088C842.778 173.528 843.322 171.16 843.322 168.984C843.322 167.512 843.098 166.456 842.65 165.816C842.202 165.112 841.53 164.76 840.634 164.76C839.418 164.76 838.17 165.624 836.89 167.352C835.61 169.08 834.97 171.256 834.97 173.88C834.97 175.224 835.194 176.856 835.642 178.776C836.154 180.696 836.858 182.2 837.754 183.288Z" fill="#484848"/>
<path d="M858.593 197.88C857.377 197.88 856.129 197.56 854.849 196.92C853.633 196.344 852.609 195.416 851.777 194.136C850.881 192.856 850.433 191.224 850.433 189.24C850.433 187.128 850.945 184.76 851.969 182.136C852.993 179.512 854.369 176.888 856.097 174.264C857.889 171.64 859.937 169.24 862.241 167.064C864.609 164.888 867.105 163.128 869.729 161.784C872.353 160.44 875.009 159.768 877.697 159.768C879.169 159.768 880.321 160.024 881.153 160.536C881.985 160.984 882.401 161.752 882.401 162.84C882.401 163.16 882.337 163.544 882.209 163.992C882.081 164.376 881.761 164.728 881.249 165.048C880.993 164.664 880.545 164.408 879.905 164.28C879.265 164.088 878.593 163.992 877.889 163.992C875.777 163.992 873.761 164.6 871.841 165.816C869.921 166.968 868.161 168.472 866.561 170.328C864.961 172.184 863.553 174.2 862.337 176.376C861.185 178.552 860.289 180.664 859.649 182.712C859.009 184.696 858.689 186.424 858.689 187.896C858.689 189.112 858.945 190.104 859.457 190.872C859.969 191.576 860.737 191.928 861.761 191.928C863.489 191.928 865.537 190.936 867.905 188.952C870.337 186.904 872.801 183.992 875.297 180.216C877.857 176.376 880.161 171.8 882.209 166.488C883.617 162.84 885.089 159.128 886.625 155.352C888.161 151.512 889.697 147.832 891.233 144.312C892.769 140.792 894.273 137.656 895.745 134.904C897.281 132.152 898.721 129.976 900.065 128.376C901.473 126.712 902.753 125.88 903.905 125.88C904.609 125.88 905.217 126.168 905.729 126.744C906.305 127.256 906.593 127.928 906.593 128.76C906.593 129.848 906.049 131.608 904.961 134.04C903.937 136.408 902.593 139.256 900.929 142.584C899.329 145.912 897.569 149.528 895.649 153.432C893.793 157.272 892.033 161.24 890.369 165.336C888.769 169.368 887.425 173.368 886.337 177.336C885.313 181.24 884.801 184.92 884.801 188.376C884.801 189.912 884.929 190.968 885.185 191.544C885.505 192.056 886.017 192.312 886.721 192.312C888.129 192.312 889.697 191.768 891.425 190.68C893.153 189.592 894.913 187.992 896.705 185.88C898.497 183.704 900.129 181.112 901.601 178.104L903.425 179.64C902.017 183.16 900.225 186.264 898.049 188.952C895.873 191.64 893.537 193.72 891.041 195.192C888.545 196.728 886.081 197.496 883.649 197.496C881.025 197.496 879.201 196.664 878.177 195C877.153 193.336 876.641 191.384 876.641 189.144C876.641 188.12 876.705 187.096 876.833 186.072C877.025 184.984 877.217 183.928 877.409 182.904C875.425 185.784 873.313 188.376 871.073 190.68C868.897 192.92 866.753 194.68 864.641 195.96C862.529 197.24 860.513 197.88 858.593 197.88Z" fill="#484848"/>
<g clip-path="url(#clip0_5_7503)">
<path d="M47.4729 221.616C47.4729 221.616 29.9596 217.716 41.139 187.212C35.8208 188.955 30.1213 189.172 24.6863 187.838C19.2513 186.504 14.298 183.673 10.3877 179.665C9.21313 174.254 9.44984 168.631 11.0751 163.339C12.7003 158.046 15.6592 153.261 19.6669 149.446C19.6669 149.446 -4.11704 134.194 0.886773 128.676C0.886773 128.676 16.3416 140.662 47.1246 137.333L73.9489 175.828C73.9489 175.828 40.9806 208.615 47.4729 221.616ZM148.816 131.15L170.668 168.884C199.456 168.154 212.821 180.457 212.821 180.457C217.888 175.733 196.986 159.783 196.986 159.783C200.985 156.554 204.09 152.35 206.003 147.576C207.916 142.801 208.573 137.615 207.912 132.513C204.598 128.5 200.228 125.497 195.297 123.843C190.365 122.19 185.07 121.953 180.011 123.159C192.679 95.762 176.844 90.7837 176.844 90.7837C182.006 103.467 148.848 131.213 148.848 131.213L148.816 131.15Z" fill="#8ED2F5"/>
<path d="M51.6534 32.4703C51.6534 32.4703 56.8155 29.2994 75.089 36.7193C75.089 36.7193 72.9672 21.4355 91.4939 19.6915C91.4939 19.6915 77.9392 31.8044 96.751 52.3203C101.405 57.7684 104.043 64.6547 104.222 71.8213C104.4 78.9879 102.109 85.9976 97.7328 91.6715C97.7328 91.6715 75.8807 103.15 54.3136 78.9878C54.3136 78.9878 42.5008 65.0674 29.6113 72.1069C29.6113 72.1069 31.0998 61.6745 49.2148 60.5013C49.2148 60.4379 42.4058 43.2832 51.6534 32.4703ZM144.889 63.3551C145.332 50.0055 137.858 48.1664 137.858 48.1664C142.039 58.0914 131.049 65.7333 131.049 65.7333C111.826 79.7488 118.603 96.5865 118.603 96.5865C122.432 100.19 127.381 102.367 132.621 102.754C137.862 103.14 143.076 101.713 147.391 98.711C163.733 86.4078 171.587 97.2206 171.587 97.2206C171.587 83.5222 160.344 83.9661 160.344 83.9661C167.185 71.2824 165.126 67.1602 165.126 67.1602C157.842 59.5817 144.889 63.3551 144.889 63.3551ZM121.39 51.8129C121.39 51.8129 145.016 23.2746 111.889 0C111.889 0 91.3672 23.1478 117.558 51.369L121.39 51.8129ZM51.7167 172.308C36.5785 195.551 46.0795 221.077 46.0795 221.077C47.7263 224.502 48.3597 222.06 48.3597 222.06C51.3683 197.454 75.7541 184.738 75.7541 184.738C109.894 158.61 96.7194 135.747 96.7194 135.747C75.5957 112.948 48.6764 127.123 48.6764 127.123C15.4549 142.026 1.64684 128.105 1.64684 128.105C-0.348354 127.82 0.0950535 128.676 0.0950535 128.676C4.08339 133.952 9.57246 137.895 15.8409 139.989C22.1093 142.083 28.8638 142.23 35.2168 140.409C31.5544 142.208 28.394 144.886 26.0177 148.206C23.6414 151.526 22.1233 155.384 21.5988 159.434C27.9961 172.372 51.6851 172.308 51.6851 172.308H51.7167ZM169.306 136.255C185.141 115.897 178.301 91.513 178.301 91.513C177.065 88.342 176.274 90.4349 176.274 90.4349C171.555 112.98 148.024 122.873 148.024 122.873C114.359 144.436 124.81 166.632 124.81 166.632C142.609 189.368 168.61 178.333 168.61 178.333C200.533 167.108 212.251 181.092 212.251 181.092C214.088 181.504 213.739 180.679 213.739 180.679C210.458 175.466 205.673 171.374 200.018 168.945C194.362 166.516 188.103 165.864 182.069 167.076C185.615 165.688 188.758 163.435 191.213 160.522C193.668 157.61 195.359 154.129 196.131 150.397C191.222 138.03 169.275 136.255 169.275 136.255H169.306ZM138.017 39.0975C138.017 39.0975 173.804 49.0225 181.341 9.22741C181.341 9.22741 151.888 -0.0951481 136.813 35.3558L138.017 39.0975Z" fill="#3481F2"/>
<path d="M172.98 342.111C170.858 339.194 168.8 336.245 166.646 333.264C162.592 327.303 158.697 321.215 154.96 315C147.518 302.591 140.762 289.783 134.723 276.632C128.695 263.456 123.481 249.923 119.11 236.107C115.409 224.249 112.426 212.177 110.179 199.959C108.912 177.762 116.893 170.881 121.042 168.852C121.61 169.669 122.33 170.369 123.164 170.913C139.188 183.185 148.246 182.455 148.246 182.455C127.471 174.813 127.154 166.822 127.154 166.822C143.654 170.374 145.807 163.112 145.807 163.112C140.455 168.788 125.38 163.112 125.38 163.112C124.684 141.962 115.879 139.109 115.879 139.109C123.512 143.928 120.345 161.844 120.345 161.844C119.877 162.901 119.65 164.049 119.68 165.205C116.006 166.886 110.179 171.262 107.455 182.455C105.55 166.128 105.306 149.65 106.727 133.274V133.274C106.885 131.689 106.98 130.103 107.044 128.581C107.55 123.825 108.247 119.068 109.071 114.312C109.786 111.244 111.207 108.386 113.219 105.964C115.231 103.542 117.779 101.623 120.662 100.36C124.63 104.193 129.937 106.321 135.451 106.29C135.451 106.29 125.539 102.262 125.602 98.6793C125.602 98.6793 125.602 94.6522 134.311 95.1913C130.078 93.5142 125.403 93.3131 121.042 94.6205C121.042 94.6205 114.929 91.7349 118.096 78.7658C118.445 77.7511 118.793 76.7364 119.205 75.5949C119.838 73.8826 120.408 72.1703 121.105 70.4897L123.195 65.4163C123.86 63.7357 124.652 62.0868 125.38 60.4062L126.489 57.9329C126.869 57.0767 127.249 56.2523 127.661 55.4595C129.276 52.2886 130.828 48.8957 132.633 45.6931C133.71 43.632 134.85 41.6026 136.021 39.5732C137.922 39.5732 152.395 40.1439 156.923 45.915C156.923 45.915 155.688 40.4928 139.283 37.0682C139.283 37.0682 151.951 35.4827 150.431 27.9359C150.431 27.9359 150.21 34.468 138.397 35.4827C140.17 32.5972 141.975 29.7116 143.781 26.8578C141.88 29.6905 140.012 32.5443 138.175 35.4193C138.175 34.5631 137.383 28.57 143.654 20.7379C143.654 20.7379 133.615 29.8701 135.768 39.2878C134.533 41.2855 133.33 43.3466 132.158 45.4077C130.321 48.5786 128.642 51.7495 126.964 55.079C126.521 55.8717 126.109 56.6962 125.729 57.5206L124.525 59.9939C123.765 61.6428 122.91 63.1649 122.213 64.9723L119.997 69.9824C119.363 71.4727 118.793 73.1533 118.191 74.4851C119.133 67.5295 119.536 60.5113 119.395 53.4935C127.471 49.2762 128.896 36.751 128.896 36.751C125.919 47.1834 120.028 49.7836 120.028 49.7836C113.694 39.4146 119.078 35.3876 119.078 35.3876C111.984 38.5585 118.128 49.7836 118.128 49.7836C105.84 38.3999 100.71 40.5561 100.71 40.5561C108.089 40.8732 116.988 52.4789 118.033 53.9058C118.092 62.3957 117.488 70.8774 116.228 79.2732L114.043 85.2979C111.762 92.2423 109.672 99.2817 108.057 106.448C107.55 108.541 107.107 110.665 106.695 112.79C106.695 112.98 106.695 113.139 106.505 113.361L106.22 114.851C105.391 106.418 102.604 98.2952 98.0811 91.1325C98.6709 90.671 99.2315 90.1732 99.7596 89.6421C112.206 76.9584 103.782 64.2747 103.782 64.2747C106.284 83.3003 96.4976 85.9322 96.4976 85.9322C91.1553 83.5704 85.2095 82.9385 79.491 84.1247C90.6387 85.1077 89.7203 89.8641 89.7203 89.8641C88.9285 94.1131 75.3106 96.9987 75.3106 96.9987C82.5133 98.0707 89.8601 96.4937 95.9909 92.5594C98.8728 96.9987 104.763 108.414 104.193 126.996C103.718 130.452 103.338 133.94 103.022 137.428C102.392 136.059 101.523 134.813 100.456 133.75C98.8004 132.115 96.6287 131.106 94.3124 130.896C74.5188 110.253 56.8155 123.571 56.8155 123.571C62.2455 121.627 68.1197 121.29 73.7359 122.601C79.3521 123.911 84.4725 126.813 88.4852 130.959C76.7357 128.771 72.6503 140.853 72.6503 140.853C81.4862 130.04 90.2587 134.511 90.2587 134.511C93.4257 139.235 89.5937 161.242 89.5937 161.242C94.7875 153.917 94.1857 141.645 94.1857 141.645C98.1128 148.78 95.9909 167.932 95.9909 167.932C98.9783 162.892 100.649 157.178 100.848 151.32C101.047 145.462 99.769 139.648 97.1311 134.416C97.7761 134.742 98.3642 135.17 98.8729 135.684C101.275 138.507 102.599 142.091 102.61 145.799C101.711 161.923 102.368 178.096 104.573 194.092C106.557 208.689 109.595 223.123 113.663 237.281C116.745 247.85 120.292 258.261 124.304 268.514C114.043 251.137 92.7922 231.319 49.8481 236.805C49.8481 236.805 34.0133 244.32 70.3701 246.54C70.3701 246.54 103.465 245.715 133.33 291.884C133.045 290.29 132.675 288.713 132.221 287.159C137.098 297.729 142.377 308.14 148.056 318.393C149.576 321.056 151.223 323.688 152.711 326.32C135.705 311.258 69.1349 259.192 13.8079 311.068C13.8079 311.068 7.09396 319.344 32.0497 316.744C32.0497 316.744 87.3134 300.889 154.39 329.111C156.068 331.869 157.779 334.596 159.552 337.323C161.326 340.05 163.606 343.475 165.696 346.519L168.863 351.053C169.971 352.575 171.048 354.034 172.252 355.588L178.871 350.197C177.794 348.897 176.654 347.438 175.704 346.043L172.98 342.111ZM115.436 88.6592C115.786 91.7665 116.871 94.7453 118.603 97.3475C118.857 97.7529 119.131 98.1445 119.426 98.5207C116.239 100.086 113.455 102.365 111.287 105.18C112.364 99.6305 113.821 94.1132 115.436 88.6592ZM208.228 276.315C208.228 276.315 183.399 286.525 176.305 330.601C176.305 330.601 162.814 279.422 220.295 262.394C220.2 262.394 234.356 262.838 208.228 276.315Z" fill="#439439"/>
<path d="M213.676 222.853C213.676 222.853 216.431 240.578 183.906 241.181C187.47 245.502 189.753 250.736 190.498 256.29C191.242 261.844 190.418 267.496 188.118 272.605C183.509 275.671 178.188 277.497 172.669 277.908C167.15 278.319 161.619 277.301 156.607 274.951C156.607 274.951 151.096 302.697 144.161 300.033C144.161 300.033 149.671 281.261 135.356 253.769L161.389 214.767C161.389 214.767 203.858 233.666 213.676 222.853Z" fill="#9AD8F8"/>
<path d="M165.316 269.624C161.346 270.638 157.185 270.648 153.21 269.651C149.235 268.655 145.57 266.684 142.545 263.916C146.56 269.171 148.887 275.521 149.221 282.128C149.555 288.735 147.878 295.288 144.414 300.921C144.414 300.921 143.781 301.65 143.306 299.684C143.306 299.684 151.255 281.737 125.285 256.179C125.285 256.179 102.325 236.234 115.785 208.235C115.785 208.235 132.253 187.624 168.99 209.979C168.99 209.979 189.702 228.053 213.676 221.901C213.676 221.901 216.177 221.616 213.676 224.375C213.676 224.375 193.375 242.576 166.171 236.9C166.203 236.9 174.88 258.97 165.316 269.624Z" fill="#3A5EF6"/>
<path d="M115.183 204.937C115.183 204.937 127.471 191.239 149.354 197.168C149.354 197.168 130.353 199.483 124.019 204.937C124.019 204.937 135.863 201.544 144.129 204.937C144.129 204.937 121.96 206.269 117.97 210.359C117.97 210.359 115.753 219.872 128.294 226.055C128.294 226.055 115.626 224.755 115.024 212.801C111.922 217.64 110.273 223.27 110.273 229.02C110.273 234.771 111.922 240.4 115.024 245.24C115.024 245.24 97.1944 230.209 115.183 204.937Z" fill="#439439"/>
</g>
<defs>
<clipPath id="clip0_5_7503">
<rect width="224" height="356" fill="white"/>
</clipPath>
</defs>
</svg>
